<svg version="1.2" xmlns="http://www.w3.org/2000/svg" viewBox="0 0 66 75" width="66" height="75"><style></style><path fill-rule="evenodd" d="m61 38.9c-2.3 2.2-5.8 2.5-8.4 0.8h-0.1c-6.3 1.3-12.2 3.8-17.4 7.4l1 1.1c2.6 2.6 2.6 6.7 0 9.3l-1.5 1.6 4.6 4.6c2.6 2.6 2.6 6.8 0 9.3-2.5 2.6-6.7 2.6-9.3 0l-10.9-10.8-1.5 1.5c-2.6 2.6-6.8 2.6-9.4 0l-6.2-6.2c-2.6-2.6-2.6-6.7 0-9.3l11.4-11.4c6.5-6.5 10.9-14.6 12.7-23.6v-0.1c-1.7-2.6-1.5-6.1 0.8-8.4 2.6-2.6 6.8-2.6 9.3 0l24.9 24.9c2.6 2.5 2.6 6.7 0 9.3zm-35.8 10.9l-9.3-9.4-10.9 10.9c-0.8 0.9-0.8 2.3 0 3.1l6.3 6.2c0.8 0.9 2.2 0.9 3.1 0 1.1-1.1 9.8-9.8 10.8-10.8zm0 6.2l-3.1 3.1 10.9 10.8c0.9 0.9 2.3 0.9 3.1 0 0.9-0.8 0.9-2.2 0-3.1zm6.2 0l1.6-1.5c0.9-0.9 0.9-2.3 0-3.1l-1.5-1.5c-1.5 1.4-2.5 2.4-3.2 3zm17.4-19.9l-19.2-19.2c-1.9 7.6-5.6 14.5-10.7 20.4l9.5 9.5c5.9-5.1 12.9-8.7 20.4-10.7zm9.1-3.4l-24.9-24.8c-0.9-0.9-2.3-0.9-3.1 0-0.9 0.8-0.9 2.2 0 3.1l24.8 24.8c0.9 0.9 2.3 0.9 3.2 0 0.8-0.8 0.8-2.2 0-3.1zm-40.5 18.7l-3.1 3.1c-0.8 0.8-2.2 0.8-3.1 0-0.8-0.9-0.8-2.3 0-3.1l3.1-3.1c0.9-0.9 2.3-0.9 3.1 0 0.9 0.8 0.9 2.2 0 3.1zm31-49.1v4.3c0 1.3-1 2.2-2.2 2.2-1.2 0-2.2-0.9-2.2-2.2v-4.3c0-1.3 1-2.2 2.2-2.2 1.2 0 2.2 0.9 2.2 2.2zm17.6 17.5c0 1.2-1 2.2-2.2 2.2h-4.4c-1.2 0-2.2-1-2.2-2.2 0-1.2 1-2.2 2.2-2.2h4.4c1.2 0 2.2 1 2.2 2.2zm-5.1-11.6l-4.4 4.4c-0.8 0.8-2.2 0.8-3.1 0-0.8-0.9-0.8-2.3 0-3.1l4.4-4.4c0.9-0.9 2.3-0.9 3.1 0 0.9 0.9 0.9 2.2 0 3.1z"/></svg>